<svg width="12" height="12" viewBox="0 0 12 12" fill="none" xmlns="http://www.w3.org/2000/svg">
<path d="M6.64704 3.62524L7.51078 4.48907C7.9076 4.88589 8.22238 5.357 8.43714 5.87549C8.65191 6.39399 8.76244 6.94971 8.76244 7.51093C8.76244 8.07215 8.65191 8.62788 8.43714 9.14637C8.22238 9.66487 7.9076 10.136 7.51078 10.5328L7.29469 10.7483C6.49333 11.5498 5.40644 12 4.27313 12C3.13983 12 2.05294 11.5498 1.25157 10.7483C0.450204 9.94685 8.44378e-09 8.85985 0 7.72643C-8.44378e-09 6.59301 0.450204 5.50601 1.25157 4.70456L2.11531 5.56839C1.82986 5.85138 1.60311 6.18797 1.44808 6.55883C1.29305 6.9297 1.21279 7.32754 1.21191 7.72951C1.21103 8.13148 1.28955 8.52966 1.44295 8.9012C1.59636 9.27274 1.82163 9.61032 2.10584 9.89456C2.39005 10.1788 2.72759 10.4041 3.09909 10.5575C3.4706 10.7109 3.86874 10.7895 4.27067 10.7886C4.6726 10.7877 5.07039 10.7074 5.44122 10.5524C5.81205 10.3973 6.1486 10.1706 6.43156 9.88509L6.64765 9.66898C7.21983 9.09657 7.54126 8.32032 7.54126 7.51093C7.54126 6.70155 7.21983 5.9253 6.64765 5.35289L5.78391 4.48907L6.64765 3.62585L6.64704 3.62524ZM10.7478 7.29483L9.88469 6.43161C10.1701 6.14862 10.3969 5.81203 10.5519 5.44116C10.7069 5.0703 10.7872 4.67246 10.7881 4.27049C10.789 3.86852 10.7105 3.47034 10.557 3.0988C10.4036 2.72726 10.1784 2.38968 9.89416 2.10544C9.60995 1.82121 9.27241 1.59591 8.90091 1.44249C8.5294 1.28907 8.13126 1.21054 7.72933 1.21142C7.3274 1.2123 6.92961 1.29257 6.55878 1.44762C6.18795 1.60267 5.8514 1.82944 5.56844 2.11492L5.35235 2.33102C4.78017 2.90343 4.45874 3.67968 4.45874 4.48907C4.45874 5.29845 4.78017 6.0747 5.35235 6.64711L6.21609 7.51093L5.35235 8.37415L4.48922 7.51093C4.0924 7.11411 3.77762 6.643 3.56286 6.12451C3.34809 5.60601 3.23756 5.05029 3.23756 4.48907C3.23756 3.92784 3.34809 3.37212 3.56286 2.85363C3.77762 2.33513 4.0924 1.86402 4.48922 1.4672L4.70531 1.2517C5.50667 0.45025 6.59356 0 7.72687 0C8.86017 0 9.94706 0.45025 10.7484 1.2517C11.5498 2.05315 12 3.14015 12 4.27357C12 5.40699 11.5498 6.49399 10.7484 7.29543L10.7478 7.29483Z" fill="#FDFDFF"/>
</svg>
