<svg width="17" height="14" viewBox="0 0 17 14" fill="none" xmlns="http://www.w3.org/2000/svg">
<path d="M8.29268 9.47059H6.63415C5.27381 9.47007 3.93922 9.83882 2.77463 10.537C1.61004 11.2351 0.659767 12.2361 0.0265377 13.4318C0.00873882 13.2099 -0.000113844 12.9873 1.10509e-06 12.7647C1.10509e-06 8.21635 3.71263 4.52941 8.29268 4.52941V0L17 7L8.29268 14V9.47059ZM6.63415 7.82353H9.95122V10.5478L14.3638 7L9.95122 3.45224V6.17647H8.29268C7.33923 6.17541 6.3968 6.37891 5.52988 6.77305C4.66297 7.1672 3.89202 7.74268 3.26981 8.46012C4.34065 8.03865 5.48226 7.82264 6.63415 7.82353Z" fill="#163152"/>
</svg>
